<?xml version="1.0" encoding="utf-8"?>
<!-- Generator: Adobe Illustrator 15.0.0, SVG Export Plug-In . SVG Version: 6.00 Build 0)  -->
<!DOCTYPE svg PUBLIC "-//W3C//DTD SVG 1.1//EN" "http://www.w3.org/Graphics/SVG/1.1/DTD/svg11.dtd">
<svg version="1.1" xmlns="http://www.w3.org/2000/svg" xmlns:xlink="http://www.w3.org/1999/xlink" x="0px" y="0px" width="300px"
	 height="232.118px" viewBox="0 0 300 232.118" enable-background="new 0 0 300 232.118" xml:space="preserve">
<g id="Layer_2" display="none">
	<polyline display="inline" fill="#FFFFFF" points="100.185,78.804 165.733,74.845 223.197,113.536 271.28,191.674 285.636,212.583 
		21.075,199.734 	"/>
	<polyline display="inline" fill="#FFFFFF" points="67.29,129.144 0,232.118 144.75,208.368 136.114,99.589 	"/>
</g>
<g id="Layer_3">
	<polyline fill="#FFFFFF" points="0,232.118 152.17,3.118 299,232.118 1.667,232.451 	"/>
</g>
<g id="Layer_1">
	<polygon fill="#CE0202" points="152.219,3.118 64.516,133.393 127.972,110.883 127.972,189.014 55.229,189.014 55.042,147.855 
		0,232.118 152.219,232.118 	"/>
	<polygon fill="#0C00AF" points="152.17,3.118 223.197,113.534 179.111,97.413 179.111,135.129 204.706,135.129 215.482,168.807 
		180.459,168.807 180.459,197.097 237.035,197.097 239.078,140.206 299,232.118 152.17,232.118 	"/>
</g>
</svg>
