<?xml version="1.0" encoding="utf-8"?>
<!-- Generator: Adobe Illustrator 15.0.0, SVG Export Plug-In . SVG Version: 6.00 Build 0)  -->
<!DOCTYPE svg PUBLIC "-//W3C//DTD SVG 1.1//EN" "http://www.w3.org/Graphics/SVG/1.1/DTD/svg11.dtd">
<svg version="1.1" xmlns="http://www.w3.org/2000/svg" xmlns:xlink="http://www.w3.org/1999/xlink" x="0px" y="0px" width="1300px"
	 height="230px" viewBox="0 0 1300 230" enable-background="new 0 0 1300 230" xml:space="preserve">
<g id="Layer_1" display="none">
	<polygon display="inline" fill="#CFE291" points="20.823,223.057 50.235,139.527 83.176,120.704 119.646,60.704 272.587,163.057 
		377.293,183.057 456.117,223.057 	"/>
</g>
<g id="Layer_2" display="none">
	<polygon display="inline" fill="#7BC794" points="20.823,223.057 169.058,185.409 327.882,44.233 365.529,35.998 411.411,94.821 
		462,151.292 717.293,223.057 	"/>
</g>
<g id="Layer_3" display="none">
	<polygon display="inline" fill="#00AC95" points="397.294,223.057 516.118,134.82 594.941,123.056 657.294,173.057 
		717.293,206.585 771.412,223.057 	"/>
</g>
<g id="Layer_4" display="none">
	<polygon display="inline" fill="#00685E" points="572.588,223.057 644.353,147.762 678.471,98.35 843.177,178.35 918.471,223.057 	
		"/>
</g>
<g id="Layer_5" display="none">
	<polygon display="inline" fill="#00597F" points="502,223.057 812.588,141.88 900.823,26.585 952.588,13.644 1004.354,90.115 
		1066.706,178.35 1205.529,223.057 	"/>
</g>
<g id="Layer_6">
	<polygon fill="#002E49" points="1276.116,223.057 1243.176,129.527 1151.411,98.35 1080.822,137.172 1017.293,185.407 
		941.999,223.057 	"/>
</g>
</svg>
